<svg width="1em" height="1em" viewBox="0 0 20 22" fill="currentColor" xmlns="http://www.w3.org/2000/svg"><path d="M17.4247 0H2.68469C1.44169 0 0.429688 1.012 0.429688 2.266V17.138C0.429688 18.392 1.44169 19.404 2.68469 19.404H15.1587L14.5757 17.369L15.9837 18.678L17.3147 19.91L19.6797 22V2.266C19.6797 1.012 18.6677 0 17.4247 0ZM13.1787 14.366C13.1787 14.366 12.7827 13.893 12.4527 13.475C13.8937 13.068 14.4437 12.166 14.4437 12.166C13.9927 12.463 13.5637 12.672 13.1787 12.815C12.6287 13.046 12.1007 13.2 11.5837 13.288C10.5277 13.486 9.55969 13.431 8.73469 13.277C8.10769 13.156 7.56869 12.98 7.11769 12.804C6.86469 12.705 6.58969 12.584 6.31469 12.43C6.28169 12.408 6.24869 12.397 6.21569 12.375C6.19369 12.364 6.18269 12.353 6.17169 12.342C5.97369 12.232 5.86369 12.155 5.86369 12.155C5.86369 12.155 6.39169 13.035 7.78869 13.453C7.45869 13.871 7.05169 14.366 7.05169 14.366C4.62069 14.289 3.69669 12.694 3.69669 12.694C3.69669 9.152 5.28069 6.281 5.28069 6.281C6.86469 5.093 8.37169 5.126 8.37169 5.126L8.48169 5.258C6.50169 5.83 5.58869 6.699 5.58869 6.699C5.58869 6.699 5.83069 6.567 6.23769 6.38C7.41469 5.863 8.34969 5.72 8.73469 5.687C8.80069 5.676 8.85569 5.665 8.92169 5.665C9.59269 5.577 10.3517 5.555 11.1437 5.643C12.1887 5.764 13.3107 6.072 14.4547 6.699C14.4547 6.699 13.5857 5.874 11.7157 5.302L11.8697 5.126C11.8697 5.126 13.3767 5.093 14.9607 6.281C14.9607 6.281 16.5447 9.152 16.5447 12.694C16.5447 12.694 15.6097 14.289 13.1787 14.366Z"></path></svg>