<svg width="1em" height="1em" viewBox="0 0 17 14" fill="currentColor" xmlns="http://www.w3.org/2000/svg"><path fill-rule="evenodd" clip-rule="evenodd" d="M1.78977 5.84144C6.16258 3.93628 9.07847 2.68028 10.5374 2.07345C14.7031 0.340808 15.5687 0.0398296 16.1329 0.0298911C16.257 0.0277053 16.5344 0.0584573 16.7141 0.204286C16.8659 0.327421 16.9076 0.493759 16.9276 0.610504C16.9476 0.72725 16.9725 0.993199 16.9527 1.201C16.7269 3.57286 15.7502 9.32872 15.2533 11.9852C15.043 13.1093 14.629 13.4862 14.2281 13.5231C13.3571 13.6032 12.6956 12.9474 11.8519 12.3944C10.5317 11.529 9.7859 10.9902 8.50442 10.1458C7.02346 9.16984 7.98351 8.63345 8.82751 7.75683C9.04838 7.52742 12.8864 4.03648 12.9607 3.71979C12.9699 3.68019 12.9786 3.53255 12.8909 3.45459C12.8032 3.37664 12.6737 3.4033 12.5803 3.4245C12.4479 3.45455 10.3389 4.84854 6.25321 7.60646C5.65457 8.01754 5.11234 8.21782 4.62652 8.20733C4.09094 8.19576 3.0607 7.9045 2.29483 7.65555C1.35545 7.35019 0.608856 7.18875 0.673868 6.67017C0.70773 6.40006 1.0797 6.12381 1.78977 5.84144Z"></path></svg>